# xmcd
# Copyright (C) 1995-1998 Ti Kan
#
# Track frame offsets:
#       150
#       13485
#       29578
#       50840
#       66214
#       89449
#       105844
#       126624
#       140163
#       154456
#       175273
#       199238
#
# Disc length: 3345 seconds
#
# Revision: 0
# Processed by: cddbd v1.5.2PL0 Copyright (c) Steve Scherf et al.
# Submitted via: CD-Transfer v1.0
#
DISCID=bc0d0f0c
DTITLE=Hold Steady, The - Craig Finn
DYEAR=08
DGENRE=
TTITLE0=Constructive Summer
TTITLE1=Sequestered In Memphis
TTITLE2=One For The Cutters
TTITLE3=Navy Sheets
TTITLE4=Lord I'm Discouraged
TTITLE5=Yeah Sapphire
TTITLE6=Both Crosses
TTITLE7=Stay Positive
TTITLE8=Magazines
TTITLE9=Joke About Jamaica
TTITLE10=Slapped Actress
TTITLE11=Bonus Hidden Track
EXTD=
EXTT0=
EXTT1=
EXTT2=
EXTT3=
EXTT4=
EXTT5=
EXTT6=
EXTT7=
EXTT8=
EXTT9=
EXTT10=
EXTT11=
PLAYORDER=
